<svg width="13" height="17" viewBox="0 0 13 17" fill="none" xmlns="http://www.w3.org/2000/svg">
<path d="M0.0725001 2.96C0.0725001 2.68267 0.499167 2.17067 1.3525 1.424C2.20583 0.656 2.80317 0.271999 3.1445 0.271999C3.50717 0.271999 5.10717 1.50933 7.9445 3.984C10.8032 6.43733 12.2325 7.90933 12.2325 8.4C12.2325 8.89067 10.8032 10.3733 7.9445 12.848C5.10717 15.3013 3.51783 16.528 3.1765 16.528C2.83517 16.528 2.22717 16.144 1.3525 15.376C0.499167 14.608 0.0725001 14.096 0.0725001 13.84C0.0725001 13.7547 0.467167 13.4027 1.2565 12.784C4.05117 10.6293 5.78983 9.168 6.4725 8.4C5.78983 7.632 4.5525 6.55467 2.7605 5.168C0.9685 3.78133 0.0725001 3.04533 0.0725001 2.96Z" fill="white"/>
</svg>
