<svg width="18" height="18" viewBox="0 0 18 18" fill="none" xmlns="http://www.w3.org/2000/svg">
<path d="M9.028 14.23C9.24933 14.23 9.436 14.154 9.588 14.002C9.73933 13.8487 9.815 13.662 9.815 13.442C9.815 13.2207 9.73867 13.034 9.586 12.882C9.43333 12.73 9.24667 12.654 9.026 12.654C8.80467 12.654 8.618 12.7303 8.466 12.883C8.314 13.0357 8.238 13.2223 8.238 13.443C8.238 13.6643 8.31467 13.851 8.468 14.003C8.62 14.155 8.80667 14.231 9.028 14.231M8.512 10.919H9.477C9.50233 10.4843 9.584 10.131 9.722 9.859C9.86 9.58767 10.1437 9.241 10.573 8.819C11.0197 8.373 11.3517 7.97333 11.569 7.62C11.787 7.26667 11.896 6.858 11.896 6.394C11.896 5.606 11.6193 4.978 11.066 4.51C10.512 4.042 9.85667 3.808 9.1 3.808C8.38067 3.808 7.77 4.00333 7.268 4.394C6.766 4.78533 6.39833 5.23467 6.165 5.742L7.085 6.123C7.245 5.759 7.474 5.43733 7.772 5.158C8.07 4.878 8.5 4.738 9.062 4.738C9.71067 4.738 10.184 4.916 10.482 5.272C10.7813 5.628 10.931 6.01933 10.931 6.446C10.931 6.79267 10.8373 7.102 10.65 7.374C10.4633 7.64667 10.22 7.92067 9.92 8.196C9.34 8.73067 8.96 9.184 8.78 9.556C8.60133 9.92733 8.512 10.3817 8.512 10.919ZM9.003 18C7.759 18 6.589 17.764 5.493 17.292C4.39767 16.8193 3.44467 16.178 2.634 15.368C1.82333 14.5587 1.18167 13.6067 0.709 12.512C0.236333 11.4173 0 10.2477 0 9.003C0 7.759 0.236 6.589 0.708 5.493C1.18067 4.39767 1.822 3.44467 2.632 2.634C3.44133 1.82333 4.39333 1.18167 5.488 0.709C6.58267 0.236333 7.75233 0 8.997 0C10.241 0 11.411 0.236 12.507 0.708C13.6023 1.18067 14.5553 1.822 15.366 2.632C16.1767 3.44133 16.8183 4.39333 17.291 5.488C17.7637 6.58267 18 7.75233 18 8.997C18 10.241 17.764 11.411 17.292 12.507C16.8193 13.6023 16.178 14.5553 15.368 15.366C14.5587 16.1767 13.6067 16.8183 12.512 17.291C11.4173 17.7637 10.2477 18 9.003 18ZM9 17C11.2333 17 13.125 16.225 14.675 14.675C16.225 13.125 17 11.2333 17 9C17 6.76667 16.225 4.875 14.675 3.325C13.125 1.775 11.2333 1 9 1C6.76667 1 4.875 1.775 3.325 3.325C1.775 4.875 1 6.76667 1 9C1 11.2333 1.775 13.125 3.325 14.675C4.875 16.225 6.76667 17 9 17Z" fill="white"/>
</svg>
